<?xml version="1.0" standalone="no"?>
<!DOCTYPE svg PUBLIC "-//W3C//DTD SVG 20010904//EN"
 "http://www.w3.org/TR/2001/REC-SVG-20010904/DTD/svg10.dtd">
<svg version="1.0" xmlns="http://www.w3.org/2000/svg"
 width="225.000000pt" height="225.000000pt" viewBox="0 0 225.000000 225.000000"
 preserveAspectRatio="xMidYMid meet">

<g transform="translate(0.000000,225.000000) scale(0.100000,-0.100000)"
fill="#000000" stroke="none">
<path d="M1070 2151 c0 -27 -2 -28 -72 -38 -74 -11 -88 -7 -101 30 -6 20 -54
-2 -59 -28 -3 -13 -1 -22 3 -19 5 3 9 1 9 -5 0 -5 -31 -22 -70 -37 l-69 -27
-19 23 c-18 22 -19 22 -45 5 -21 -14 -25 -21 -17 -35 16 -30 13 -35 -46 -80
-54 -40 -56 -41 -80 -25 -49 32 -76 -27 -29 -63 14 -11 21 -23 16 -26 -5 -3
-11 -1 -13 5 -5 14 -78 -83 -78 -102 1 -8 7 -3 14 10 8 15 16 20 20 12 4 -6 2
-11 -4 -11 -7 0 -9 -7 -6 -16 3 -8 2 -13 -2 -10 -12 7 -53 -24 -47 -35 4 -5 2
-9 -4 -9 -14 0 -64 -87 -57 -99 4 -5 2 -12 -4 -16 -5 -3 -10 -11 -10 -16 0 -6
4 -8 9 -5 10 6 25 -24 16 -32 -3 -3 -5 0 -5 7 0 7 -4 9 -10 6 -5 -3 -10 -1
-10 4 0 18 -38 12 -43 -6 -4 -17 -5 -17 -6 0 0 9 -6 17 -12 17 -5 0 -8 -4 -4
-9 3 -5 1 -13 -5 -16 -14 -9 7 -35 27 -35 11 0 14 -9 10 -40 -2 -23 -7 -43
-10 -47 -4 -3 -2 -14 3 -24 7 -12 7 -20 0 -24 -6 -4 -8 -11 -5 -16 4 -5 -10
-9 -30 -9 -35 0 -36 -1 -33 -32 2 -25 9 -34 28 -39 14 -4 19 -7 13 -8 -22 -2
-14 -31 7 -31 16 0 20 -7 20 -38 0 -21 8 -48 17 -61 9 -14 11 -21 5 -17 -8 4
-12 0 -12 -11 0 -13 -3 -15 -8 -5 -11 17 -42 4 -42 -17 0 -14 2 -14 11 -1 8
12 9 9 5 -12 -4 -16 -2 -28 4 -28 5 0 10 8 10 18 0 10 3 13 8 6 4 -6 19 -14
35 -18 16 -4 27 -13 27 -24 0 -15 -2 -15 -11 -2 -14 20 -2 -25 17 -62 19 -37
17 -55 -6 -68 -23 -13 -18 -30 10 -30 21 0 33 -23 19 -37 -5 -5 -4 -16 4 -28
13 -16 16 -17 35 -3 12 8 21 17 19 19 -1 2 3 -1 9 -8 6 -7 14 -11 17 -8 4 3 5
2 2 -1 -2 -4 5 -20 16 -36 20 -27 20 -30 5 -47 -16 -18 -15 -21 9 -57 34 -50
44 -55 72 -37 21 14 25 14 43 -2 10 -9 23 -14 29 -11 5 4 12 2 16 -4 4 -6 -32
-10 -103 -10 l-109 0 -7 -53 c-3 -28 -6 -112 -6 -184 0 -112 2 -133 15 -133 9
0 15 -10 15 -26 0 -20 4 -24 18 -20 9 3 60 15 112 25 332 70 820 64 1188 -14
41 -8 75 -15 78 -15 2 0 4 86 4 190 0 162 -2 190 -15 190 -8 0 -15 9 -15 20 0
19 -6 20 -97 19 -85 -2 -90 -3 -41 -8 62 -7 82 -19 76 -47 -3 -16 -13 -19 -53
-19 -45 0 -50 3 -53 23 -3 21 -8 23 -50 20 -45 -3 -47 -4 -50 -37 -2 -19 -1
-44 2 -57 6 -21 12 -24 51 -24 39 0 45 3 45 20 0 25 33 39 78 33 26 -4 32 -10
32 -29 0 -34 -28 -44 -122 -44 -109 0 -128 12 -128 80 0 57 22 80 80 81 31 0
32 1 13 9 -35 14 -28 18 26 12 41 -4 55 0 82 19 18 13 29 18 26 11 -13 -20 27
-33 52 -16 26 19 25 60 -1 58 -11 -1 -14 4 -11 14 4 10 2 13 -6 8 -7 -5 -10
-2 -9 6 2 7 -2 12 -9 11 -15 -3 -10 24 7 40 12 10 12 9 2 -4 -10 -13 -8 -19 7
-33 18 -17 21 -16 53 28 38 52 54 61 75 44 13 -10 19 -8 34 11 25 31 24 50 -3
61 -13 5 -19 9 -14 9 5 1 3 7 -4 15 -6 8 -18 12 -26 9 -12 -4 -12 -8 3 -20 16
-13 16 -13 -6 -3 -16 8 -20 15 -13 22 6 6 8 16 6 23 -3 7 -1 16 5 20 6 3 9 0
5 -8 -5 -15 21 -31 36 -22 5 3 16 26 26 51 14 36 21 44 38 42 31 -4 46 10 46
43 0 19 -5 29 -15 29 -8 0 -15 -4 -15 -10 0 -5 -7 -10 -16 -10 -14 0 -14 2 1
16 20 21 15 38 -13 42 -12 2 -22 7 -22 12 0 5 7 7 16 3 21 -8 34 14 34 60 0
26 5 37 15 38 8 1 21 2 28 3 7 0 13 18 15 40 3 32 1 38 -12 33 -12 -5 -16 0
-16 18 0 22 -5 25 -37 26 -24 1 -30 3 -15 6 21 4 22 8 16 54 -5 40 -4 49 8 49
30 0 41 26 24 57 -11 20 -15 23 -16 11 0 -20 -15 -24 -26 -6 -4 7 -3 8 4 4 15
-9 15 9 2 33 -6 13 -17 17 -34 14 -23 -5 -28 1 -51 52 -22 52 -27 56 -42 44
-15 -11 -15 -10 0 7 19 19 19 19 34 -3 l15 -22 23 25 c20 21 22 29 13 44 -9
14 -17 16 -29 9 -14 -7 -17 -5 -14 16 3 34 -15 47 -40 29 -19 -15 -19 -15 5
-11 14 2 19 2 12 0 -7 -3 -9 -10 -5 -16 10 -16 13 -41 5 -32 -4 4 -7 12 -7 18
-1 7 -5 11 -10 11 -6 -1 -31 26 -57 61 -31 41 -41 61 -30 59 9 -2 23 0 31 5
12 8 8 18 -23 55 -41 50 -47 53 -66 31 -17 -20 -38 -16 -70 15 -15 14 -40 35
-56 48 l-29 24 29 -17 c20 -12 31 -14 39 -6 13 13 -11 44 -29 37 -8 -3 -11 0
-8 9 3 8 -6 21 -21 31 -26 17 -28 17 -45 -6 l-17 -23 -59 23 c-64 26 -91 42
-53 33 23 -6 23 -5 8 13 -9 10 -19 27 -22 37 -4 9 -13 17 -21 17 -8 0 -21 3
-29 6 -11 4 -17 -4 -22 -26 -6 -27 -10 -31 -33 -26 -15 3 -49 8 -77 12 -38 5
-45 9 -30 15 17 6 17 8 3 8 -11 1 -18 9 -18 21 0 16 -7 20 -35 20 -32 0 -35
-3 -35 -29z m40 -121 c0 -27 -4 -50 -10 -50 -5 0 -10 23 -10 50 0 28 5 50 10
50 6 0 10 -22 10 -50z m-42 21 c3 -10 -3 -11 -27 -6 -28 6 -31 4 -31 -18 0
-29 7 -37 26 -30 12 4 11 8 -3 19 -17 12 -16 13 10 14 15 0 27 -3 28 -7 0 -5
2 -17 3 -28 2 -18 -3 -20 -36 -20 -23 0 -43 7 -48 15 -14 21 -12 54 2 68 16
16 70 11 76 -7z m106 -8 l15 -28 1 28 c0 15 6 27 13 27 8 0 11 -15 9 -50 -4
-52 -25 -69 -37 -30 -4 11 -11 18 -16 14 -5 -3 -7 -10 -4 -15 4 -5 -1 -9 -9
-9 -17 0 -22 43 -10 74 9 23 21 20 38 -11z m-215 -20 c15 -53 14 -62 -8 -60
-11 0 -18 4 -15 8 2 4 -3 12 -11 19 -13 11 -15 9 -13 -10 2 -13 -2 -25 -8 -27
-12 -4 -30 84 -20 95 3 3 18 -5 32 -19 l26 -24 -7 28 c-11 42 12 33 24 -10z
m330 31 c41 -8 40 -24 -1 -25 -30 -1 -30 -2 -9 -8 35 -9 42 -36 8 -27 -14 3
-28 2 -32 -3 -3 -5 5 -11 17 -13 26 -4 35 -23 13 -32 -9 -3 -13 -2 -10 4 4 6
-6 10 -21 10 -25 0 -26 2 -20 38 3 20 6 43 6 50 0 14 5 14 49 6z m104 -31 c9
-3 17 -11 17 -19 0 -10 -6 -11 -25 -4 -14 5 -25 6 -25 1 0 -5 9 -11 21 -14 29
-8 15 -25 -16 -19 -33 6 -32 -6 1 -18 14 -6 22 -15 19 -20 -4 -6 -10 -8 -14
-5 -5 2 -20 9 -34 14 l-26 10 17 46 c12 34 20 44 32 39 8 -3 23 -9 33 -11z
m-543 -4 c0 -6 -9 -13 -20 -16 -11 -3 -20 -9 -20 -15 0 -5 8 -4 19 2 26 13 31
13 31 -5 0 -8 -7 -15 -15 -15 -8 0 -15 -5 -15 -11 0 -7 10 -9 25 -5 33 8 32
-7 0 -22 -37 -17 -42 -15 -53 16 -5 15 -13 34 -17 43 -5 12 1 20 22 27 37 14
43 14 43 1z m625 -35 c28 -18 33 -42 10 -50 -8 -4 -15 -17 -15 -30 0 -34 -17
-30 -25 7 -6 28 -8 29 -20 12 -22 -30 -29 -6 -10 37 20 45 25 47 60 24z m-730
-96 c11 -26 -10 -22 -40 8 -14 14 -32 23 -40 20 -9 -3 -12 0 -8 10 4 10 14 14
29 11 18 -3 24 0 24 13 0 35 15 30 21 -7 3 -21 9 -46 14 -55z m795 51 c0 -17
-40 -79 -51 -79 -15 0 -10 18 14 55 22 35 37 44 37 24z m42 -55 c-3 -28 -3
-28 16 -11 31 29 33 5 3 -35 -32 -43 -56 -38 -46 8 6 27 5 28 -9 10 -8 -10
-19 -15 -25 -11 -13 8 39 77 54 71 6 -2 9 -16 7 -32z m-1020 9 c-10 -4 -10 -8
0 -21 12 -16 11 -16 -6 -2 -18 13 -19 13 -14 -1 5 -12 0 -15 -23 -14 -35 2
-46 10 -24 19 9 3 13 2 10 -4 -12 -20 12 -9 35 15 13 14 26 22 29 19 3 -4 0
-9 -7 -11z m96 1 c31 -21 28 -56 -9 -88 -16 -15 -29 -21 -27 -14 2 7 -7 27
-20 45 -29 41 -22 61 28 72 3 0 16 -6 28 -15z m262 -54 c0 -5 -5 -10 -11 -10
-5 0 -7 5 -4 10 3 6 8 10 11 10 2 0 4 -4 4 -10z m-334 -13 c26 -15 26 -59 1
-84 -16 -16 -19 -15 -52 17 l-35 34 22 23 c24 26 34 27 64 10z m1096 -4 c20
-18 23 -38 8 -48 -6 -3 -14 5 -20 20 -8 22 -13 24 -31 15 -21 -12 -23 -40 -1
-48 7 -2 10 2 6 12 -8 20 10 21 26 0 11 -12 10 -18 -3 -31 -14 -15 -18 -15
-41 1 -30 19 -34 51 -9 78 20 22 41 23 65 1z m-992 -7 c0 -2 -8 -10 -17 -17
-16 -13 -17 -12 -4 4 13 16 21 21 21 13z m211 -11 c5 4 6 -1 2 -10 -5 -13 -7
-14 -14 -3 -5 7 -8 18 -8 23 0 6 3 4 6 -3 2 -6 9 -10 14 -7z m372 -31 c-3 -9
9 -21 38 -34 24 -10 45 -15 47 -10 2 5 22 0 45 -12 23 -11 43 -20 45 -19 8 5
51 -13 56 -25 3 -7 12 -11 21 -8 8 3 15 1 15 -5 0 -6 9 -11 21 -11 13 0 23
-10 30 -30 10 -26 25 -36 52 -31 5 1 6 -3 2 -9 -3 -5 0 -10 7 -10 9 0 9 -3 2
-8 -13 -9 -3 -54 11 -50 6 2 11 -12 13 -31 3 -28 1 -33 -13 -27 -14 5 -16 -1
-12 -39 2 -26 -1 -46 -7 -48 -8 -3 -7 -14 1 -38 7 -19 12 -56 11 -83 0 -26 4
-51 11 -55 6 -4 12 -26 13 -49 1 -23 5 -42 10 -42 6 0 7 -29 5 -67 -7 -91 -17
-143 -28 -143 -5 0 -9 -9 -9 -21 0 -11 -4 -18 -9 -14 -10 6 -51 -32 -51 -47 0
-5 -9 -4 -20 2 -16 8 -20 8 -20 -4 0 -28 -16 -25 -27 5 -6 16 -7 29 -2 29 5 0
10 -8 10 -17 1 -17 2 -17 6 -1 2 9 13 20 23 23 13 4 19 14 18 30 -1 13 -6 21
-10 19 -5 -3 -6 -9 -3 -13 2 -5 -4 -16 -15 -26 -12 -10 -20 -13 -20 -7 0 7 -3
11 -7 11 -19 -3 -33 2 -33 12 0 7 9 9 23 6 18 -5 22 -2 22 17 0 13 -3 22 -6
20 -4 -2 -12 2 -18 10 -9 11 -7 15 8 19 11 2 25 0 32 -7 9 -8 10 -5 4 14 -4
14 -8 37 -9 52 0 14 -4 24 -7 22 -4 -2 -9 9 -12 24 -3 15 -22 91 -42 170 l-37
142 -90 0 c-76 0 -98 -4 -139 -24 -46 -24 -50 -24 -80 -9 l-32 16 7 71 c5 55
11 74 26 85 11 7 20 19 20 27 0 7 8 19 18 26 17 12 26 35 38 92 2 11 9 23 16
28 10 6 10 8 -1 8 -11 0 -9 4 5 15 13 10 15 14 5 15 -8 0 -11 3 -8 7 4 3 1 13
-6 21 -10 13 -9 15 9 10 18 -5 21 -1 20 18 0 13 -4 24 -8 24 -5 0 -8 8 -8 18
1 16 2 16 15 -1 7 -11 11 -25 8 -33z m-50 21 c-3 -9 -8 -14 -10 -11 -3 3 -2 9
2 15 9 16 15 13 8 -4z m-519 -13 c2 -4 -4 -8 -14 -8 -10 0 -16 4 -14 8 3 4 9
8 14 8 5 0 11 -4 14 -8z m-244 -16 c-7 -7 -13 -7 -20 0 -6 6 -3 10 10 10 13 0
16 -4 10 -10z m31 -19 c-6 -6 -11 -17 -11 -25 0 -9 7 -5 19 9 11 13 23 21 27
17 4 -4 1 -14 -6 -23 -7 -8 -9 -15 -4 -15 5 0 2 -5 -6 -10 -9 -6 -10 -10 -3
-10 6 0 18 9 26 21 10 14 17 17 22 9 4 -6 0 -19 -9 -29 -17 -19 -22 -36 -7
-26 5 3 13 0 17 -6 4 -7 3 -9 -4 -5 -6 3 -13 2 -16 -3 -4 -5 -2 -12 4 -16 13
-8 13 -25 -1 -25 -5 0 -8 4 -4 9 3 5 1 12 -5 16 -6 4 -8 10 -5 14 4 8 -47 37
-52 29 -2 -1 -10 7 -19 20 -15 22 -15 25 6 47 13 14 27 22 32 19 6 -4 5 -11
-1 -17z m147 -17 c-1 -17 -5 -33 -9 -36 -5 -3 -6 3 -2 13 6 16 4 16 -18 -2
l-24 -20 19 22 c10 12 16 29 13 38 -4 9 -1 15 8 15 9 0 13 -11 13 -30z m246
-34 c-3 -9 -1 -16 6 -16 6 0 8 -4 5 -10 -3 -5 -2 -10 4 -10 6 0 13 -16 17 -36
4 -23 22 -53 48 -80 40 -42 41 -44 40 -111 -1 -37 -2 -78 -3 -89 l-1 -22 -60
19 c-33 10 -96 22 -140 25 l-80 7 0 -28 c0 -24 -3 -27 -24 -23 -14 3 -31 1
-38 -3 -10 -7 -10 -9 0 -9 7 0 12 -13 12 -30 0 -27 -2 -29 -24 -20 -15 5 -27
5 -35 -3 -14 -14 -14 -37 -1 -37 6 0 10 -20 10 -45 0 -55 -15 -59 -24 -7 -10
63 -7 94 11 108 17 12 17 13 1 14 -22 0 -32 -18 -30 -55 2 -23 0 -26 -8 -15
-15 23 -12 41 20 104 17 32 30 74 30 92 0 18 5 34 11 36 7 2 7 17 0 48 -6 25
-11 59 -11 77 0 26 -3 31 -17 26 -31 -12 -4 14 32 31 20 10 33 21 31 25 -3 4
6 14 20 22 22 11 27 11 35 -1 8 -12 12 -12 16 -2 2 6 18 12 34 12 23 0 29 4
29 21 0 18 5 20 26 16 16 -3 28 0 31 10 4 11 8 10 19 -6 8 -11 11 -26 8 -35z
m-274 40 c0 -2 -8 -10 -17 -17 -16 -13 -17 -12 -4 4 13 16 21 21 21 13z m1070
-31 c-7 -8 -17 -15 -23 -15 -6 0 -2 7 9 15 25 19 30 19 14 0z m88 3 c14 -14
16 -54 4 -62 -4 -2 -9 5 -9 16 -3 31 -19 44 -38 28 -20 -16 -20 -44 0 -36 9 3
15 0 15 -10 0 -23 -41 -13 -51 12 -16 45 46 85 79 52z m-1352 -23 c-3 -8 -1
-15 4 -15 6 0 10 5 10 12 0 6 10 2 23 -10 13 -12 31 -22 40 -22 9 0 17 -4 17
-10 0 -5 0 -13 1 -17 1 -5 -14 -7 -32 -5 -31 2 -32 1 -16 -11 16 -13 24 -37
11 -37 -3 0 -22 10 -43 22 -28 16 -38 28 -37 44 0 12 5 20 9 17 5 -3 8 1 6 8
-2 22 0 39 7 39 3 0 4 -7 0 -15z m1409 -6 c11 -16 1 -19 -13 -3 -7 8 -8 14 -3
14 5 0 13 -5 16 -11z m-4 -62 c21 -17 10 -59 -20 -74 -50 -24 -91 28 -54 69
19 21 51 23 74 5z m-110 -6 c-7 -5 -17 -15 -22 -22 -6 -10 -8 -7 -6 9 1 15 8
22 22 22 15 0 17 -2 6 -9z m-4 -33 c-3 -8 -6 -5 -6 6 -1 11 2 17 5 13 3 -3 4
-12 1 -19z m17 -34 c4 -10 1 -14 -6 -12 -15 5 -23 28 -10 28 5 0 13 -7 16 -16z
m-1264 -10 c0 -2 -10 -12 -22 -23 -20 -19 -20 -22 -5 -39 20 -22 22 -33 5 -28
-7 1 -10 1 -7 -1 12 -7 -14 -74 -27 -69 -7 3 -28 8 -48 11 -22 5 -33 11 -30
20 3 7 14 11 26 7 11 -3 24 1 30 9 8 11 9 10 4 -3 -3 -10 -1 -18 4 -18 5 0 13
12 16 27 6 22 1 31 -29 56 -42 33 -40 47 4 47 17 0 28 4 25 8 -3 5 8 6 25 4
16 -2 29 -6 29 -8z m1400 -10 c0 -7 -16 -18 -35 -24 -39 -13 -39 -13 -24 -41
8 -15 19 -20 42 -17 45 4 46 -15 2 -26 -32 -7 -36 -11 -31 -32 4 -16 2 -24 -6
-24 -13 0 -50 138 -41 153 2 4 15 7 29 7 13 0 24 4 24 8 0 4 9 8 20 8 11 0 20
-6 20 -12z m-1380 -14 c0 -5 -5 -10 -11 -10 -5 0 -7 5 -4 10 3 6 8 10 11 10 2
0 4 -4 4 -10z m1385 -20 c-3 -5 -16 -10 -28 -9 -20 1 -20 2 3 9 14 4 26 8 28
9 2 1 0 -3 -3 -9z m77 -47 c-3 -16 -7 -22 -10 -15 -4 13 4 42 11 42 2 0 2 -12
-1 -27z m-1472 -23 c-19 -13 -30 -13 -30 0 0 6 10 10 23 10 18 0 19 -2 7 -10z
m1440 -10 c0 -5 -4 -10 -10 -10 -5 0 -10 5 -10 10 0 6 5 10 10 10 6 0 10 -4
10 -10z m-44 -25 c-14 -14 -16 -14 -16 -2 0 9 6 17 13 20 19 7 21 -1 3 -18z
m-1406 5 c0 -5 -5 -10 -11 -10 -5 0 -7 5 -4 10 3 6 8 10 11 10 2 0 4 -4 4 -10z
m1487 -27 c-3 -10 -5 -4 -5 12 0 17 2 24 5 18 2 -7 2 -21 0 -30z m-41 2 c18
-9 23 -15 12 -15 -9 0 -20 5 -23 10 -4 6 -11 8 -16 5 -5 -4 -9 -1 -9 4 0 14 2
14 36 -4z m-1489 -41 c-9 -29 -15 -34 -31 -30 -12 3 -31 6 -43 6 -13 0 -23 5
-23 10 0 6 15 10 34 10 25 0 35 5 39 20 3 11 12 20 20 20 13 0 13 -6 4 -36z
m1475 -9 c3 -24 0 -35 -9 -35 -7 0 -14 12 -14 28 l-2 27 -4 -27 c-5 -35 -23
-37 -23 -3 0 14 -4 25 -10 25 -5 0 -10 -13 -10 -29 0 -16 -6 -31 -12 -34 -9
-3 -13 8 -13 39 l0 44 46 0 c46 0 47 -1 51 -35z m-1017 9 c28 -3 65 -12 84
-20 31 -13 33 -16 19 -32 -17 -19 -18 -59 -3 -82 27 -41 35 -66 30 -91 -6 -27
17 -89 33 -89 5 0 18 9 30 20 28 26 32 25 32 -5 0 -14 4 -25 9 -25 5 0 12 -35
15 -77 4 -43 8 -93 11 -111 l4 -33 -49 36 c-63 46 -117 69 -212 90 l-77 17 -5
41 c-11 80 -36 330 -36 354 0 21 3 23 33 19 17 -3 55 -8 82 -12z m-430 -4 c3
-5 1 -10 -4 -10 -6 0 -11 5 -11 10 0 6 2 10 4 10 3 0 8 -4 11 -10z m1035 -165
c24 -96 42 -177 39 -179 -2 -2 -28 -7 -58 -11 -103 -13 -158 -42 -253 -133
l-46 -44 -7 78 c-3 44 -8 96 -11 116 -5 36 -4 38 45 63 49 24 51 27 51 66 0
32 -4 42 -20 46 -24 6 -24 7 -8 50 10 27 10 38 -1 55 -11 18 -11 23 5 32 38
22 91 34 155 35 l65 1 44 -175z m-750 128 c0 -5 7 -66 15 -138 9 -71 18 -157
21 -191 l7 -60 91 -17 c94 -18 180 -53 210 -86 15 -16 10 -15 -32 5 -60 29
-115 41 -219 50 l-80 7 -7 71 c-3 39 -13 134 -21 211 -8 77 -15 143 -15 148 0
4 7 7 15 7 8 0 15 -3 15 -7z m-392 -24 c-7 -5 -8 -9 -2 -9 5 0 19 7 30 15 24
18 44 19 44 1 0 -8 -6 -16 -12 -19 -9 -3 -5 -13 12 -32 l25 -28 -30 6 c-67 13
-85 25 -83 56 1 20 6 27 16 24 11 -5 11 -7 0 -14z m1547 -26 c4 -16 8 -35 9
-43 2 -10 -5 -17 -16 -17 -16 -2 -18 3 -13 26 4 21 2 30 -10 35 -22 8 -35 -1
-34 -22 0 -11 3 -12 6 -4 8 21 23 13 23 -13 0 -20 -5 -25 -24 -25 -24 0 -36
16 -36 49 0 26 21 41 57 41 28 0 34 -4 38 -27z m39 2 c-4 -8 -10 -15 -15 -15
-4 0 -6 7 -3 15 4 8 10 15 15 15 4 0 6 -7 3 -15z m-1251 -12 c3 -5 12 -87 21
-183 9 -96 19 -184 21 -195 4 -19 16 -22 112 -32 83 -8 126 -18 186 -43 42
-18 76 -34 74 -36 -1 -2 -39 8 -82 23 -63 20 -104 26 -193 28 -62 2 -115 5
-117 7 -3 3 -45 402 -45 431 0 4 4 7 9 7 6 0 12 -3 14 -7z m1102 -13 c3 -5 1
-10 -4 -10 -6 0 -11 5 -11 10 0 6 2 10 4 10 3 0 8 -4 11 -10z m-1305 -40 c0
-11 -7 -20 -15 -20 -8 0 -15 5 -15 12 0 22 -13 -2 -15 -27 -1 -28 5 -31 24
-12 7 6 5 -2 -4 -18 -15 -26 -24 -30 -61 -32 -50 -2 -58 15 -21 40 l22 16 -26
0 c-34 1 -45 27 -16 36 44 14 89 15 103 4 11 -9 14 -8 14 5 0 9 2 16 5 16 3 0
5 -9 5 -20z m120 -16 c0 -13 9 -28 20 -34 13 -7 20 -21 20 -41 0 -17 -4 -28
-9 -25 -11 7 -2 -34 12 -51 5 -7 7 -36 3 -65 -3 -29 -6 -64 -6 -78 l-1 -25
-24 28 c-13 15 -29 27 -35 27 -5 0 -10 5 -10 11 0 6 -13 22 -30 36 -22 18 -30
33 -30 58 0 41 9 67 21 59 5 -3 10 14 11 38 0 24 2 48 3 53 2 6 3 15 4 20 0 6
12 11 26 11 20 2 25 -3 25 -22z m1288 -9 c26 0 27 -2 7 -21 -8 -9 -15 -24 -15
-33 0 -10 -8 -25 -17 -32 -13 -11 -15 -11 -9 -1 5 9 1 15 -14 19 -17 4 -20 11
-16 29 4 14 2 24 -4 24 -5 0 -10 -6 -10 -12 0 -22 -17 -41 -29 -34 -8 5 -8 13
-1 27 8 13 7 19 0 19 -7 0 -6 6 2 15 9 10 23 12 48 8 19 -4 45 -7 58 -8z
m-1573 -14 c-3 -6 -11 -11 -16 -11 -5 0 -4 6 3 14 14 16 24 13 13 -3z m1635
-6 c0 -8 -4 -15 -10 -15 -5 0 -7 7 -4 15 4 8 8 15 10 15 2 0 4 -7 4 -15z
m-1464 -24 c0 -11 -4 -17 -8 -15 -4 3 -8 0 -8 -7 0 -7 -3 -10 -6 -7 -5 5 12
48 19 48 2 0 3 -9 3 -19z m1479 -51 c-3 -5 -12 -10 -18 -10 -7 0 -6 4 3 10 19
12 23 12 15 0z m-1650 -10 c3 -5 1 -10 -4 -10 -6 0 -11 5 -11 10 0 6 2 10 4
10 3 0 8 -4 11 -10z m1630 -29 c-6 -5 -25 10 -25 20 0 5 6 4 14 -3 8 -7 12
-15 11 -17z m-1568 -71 c1 -16 -2 -32 -6 -35 -7 -3 -8 49 -2 63 3 8 6 -2 8
-28z m-29 -5 c-3 -3 -9 2 -12 12 -6 14 -5 15 5 6 7 -7 10 -15 7 -18z m1151
-14 c9 -17 5 -19 -39 -25 -71 -9 -124 -30 -191 -75 -33 -22 -59 -38 -59 -36 0
9 80 78 121 106 40 25 95 43 146 48 7 1 17 -7 22 -18z m-1119 -45 c0 -8 -7
-16 -15 -20 -12 -4 -13 -2 -2 14 14 24 17 25 17 6z m1109 -28 c8 -22 5 -24
-66 -35 -44 -7 -105 -26 -150 -47 -42 -20 -77 -35 -79 -34 -7 8 161 112 199
124 63 19 86 17 96 -8z m-832 -20 c-3 -8 -6 -5 -6 6 -1 11 2 17 5 13 3 -3 4
-12 1 -19z m-254 -12 c4 -10 1 -13 -8 -9 -8 3 -12 9 -9 14 7 12 11 11 17 -5z
m1497 0 c0 -2 -8 -10 -17 -17 -16 -13 -17 -12 -4 4 13 16 21 21 21 13z m-1440
-32 c0 -2 -9 0 -20 6 -11 6 -20 13 -20 16 0 2 9 0 20 -6 11 -6 20 -13 20 -16z
m1345 -3 c-3 -6 -11 -11 -16 -11 -5 0 -4 6 3 14 14 16 24 13 13 -3z m-1105 -2
c13 -9 13 -10 0 -6 -8 2 -20 -3 -27 -12 -11 -15 -12 -15 -13 0 0 28 15 36 40
18z m774 -9 c12 0 28 6 34 12 10 10 15 10 22 -2 15 -24 13 -25 -37 -23 -27 2
-42 0 -35 -3 19 -9 14 -24 -8 -24 -23 0 -72 -21 -82 -35 -4 -5 -11 -10 -15
-11 -22 -2 -63 -17 -63 -23 0 -3 -25 -7 -55 -8 -31 -1 -53 2 -50 6 3 5 -1 12
-7 14 -8 3 -6 6 5 6 9 1 17 6 17 11 0 6 8 10 17 10 9 0 14 -3 10 -6 -3 -4 1
-13 9 -21 8 -9 18 -13 21 -10 3 3 -2 14 -12 23 -17 17 -16 19 4 35 12 10 29
15 38 12 9 -4 21 1 29 12 8 10 14 15 14 11 0 -5 6 -4 13 2 6 5 27 7 45 5 26
-4 30 -8 21 -19 -17 -21 6 -18 27 4 17 16 16 17 -22 23 l-39 5 35 5 c19 2 37
1 38 -3 2 -5 14 -8 26 -8z m-696 -20 c3 -9 -3 -11 -23 -6 -14 4 -24 3 -21 -2
3 -5 -1 -9 -8 -9 -7 0 -11 8 -9 16 5 20 55 21 61 1z m-78 0 c0 -5 -4 -10 -10
-10 -5 0 -10 5 -10 10 0 6 5 10 10 10 6 0 10 -4 10 -10z m110 -10 c0 -5 -4
-10 -10 -10 -5 0 -10 5 -10 10 0 6 5 10 10 10 6 0 10 -4 10 -10z m770 0 c0 -5
-4 -10 -10 -10 -5 0 -10 5 -10 10 0 6 5 10 10 10 6 0 10 -4 10 -10z m-589 -19
c51 -20 65 -24 78 -22 12 2 12 0 0 -12 -8 -7 -21 -16 -29 -20 -12 -4 -12 -6 2
-6 9 -1 20 4 23 9 3 6 11 10 16 10 6 0 7 -4 4 -10 -3 -5 -1 -10 4 -10 6 0 11
8 11 18 1 15 2 15 15 -2 8 -11 15 -15 15 -8 0 7 7 9 17 5 29 -11 -15 -20 -96
-19 -57 1 -76 5 -79 16 -4 12 -2 13 9 4 10 -8 22 -8 43 1 20 8 25 15 16 20 -7
4 -16 2 -20 -5 -4 -7 -17 -10 -29 -7 -12 3 -23 1 -26 -3 -3 -5 -17 -4 -33 0
-15 5 -45 14 -68 19 -25 7 -41 17 -41 26 0 13 12 15 73 11 39 -3 83 -10 95
-15z m724 -83 c5 4 5 1 1 -6 -6 -10 -11 -10 -22 -1 -8 6 -14 14 -14 16 0 3 6
0 13 -6 8 -6 18 -7 22 -3z m-75 -21 c0 -2 -10 -12 -22 -23 l-23 -19 19 23 c18
21 26 27 26 19z m-472 -80 c15 -10 16 -57 0 -57 -9 0 -9 -3 0 -12 7 -7 12 -27
12 -45 0 -26 -4 -33 -19 -33 -15 0 -21 8 -23 33 -3 31 -5 32 -50 35 -46 3 -47
3 -50 -30 -3 -33 -4 -33 -53 -33 l-50 0 -3 64 c-2 36 2 69 8 75 22 22 194 24
228 3z m-537 -33 c55 -53 46 -54 120 19 25 24 35 28 76 25 l48 -3 0 -75 0 -75
-50 0 -50 0 -3 38 c-2 21 -9 37 -16 37 -6 0 -30 -18 -51 -40 -21 -22 -49 -40
-60 -40 -12 0 -36 16 -55 35 -49 50 -67 45 -61 -17 2 -12 -5 -18 -17 -18 -21
0 -32 33 -32 95 0 56 8 65 56 65 39 0 51 -6 95 -46z m794 39 c-73 -6 -85 -12
-85 -38 0 -24 3 -25 60 -25 33 0 60 -4 60 -10 0 -6 -27 -10 -60 -10 -53 0 -60
-2 -60 -19 0 -27 7 -29 79 -32 34 -1 64 -6 67 -11 3 -5 -52 -7 -123 -6 l-128
3 -3 64 c-2 35 -1 70 2 77 4 11 31 14 118 12 62 -1 95 -3 73 -5z m-362 -193
c43 0 43 0 39 -32 -3 -28 -8 -33 -32 -35 -21 -2 -31 3 -35 17 -4 11 -3 24 0
30 3 5 1 10 -4 10 -6 0 -11 -13 -11 -30 0 -16 -4 -30 -10 -30 -5 0 -10 8 -10
17 0 15 -1 15 -13 -2 -8 -10 -19 -15 -25 -11 -17 10 -15 27 6 43 16 12 15 13
-8 11 -20 -3 -25 -8 -23 -31 1 -15 -2 -27 -8 -27 -5 0 -10 10 -10 23 -1 20 -2
20 -6 2 -6 -24 -21 -35 -40 -28 -18 7 -16 30 5 42 15 9 15 10 -5 11 -19 0 -23
-5 -23 -30 0 -41 -20 -38 -21 3 l-2 32 -6 -35 c-5 -31 -10 -35 -36 -35 -27 0
-30 3 -27 28 2 20 -2 27 -15 27 -16 1 -16 2 -2 10 9 5 69 13 133 16 104 6 115
9 103 23 -10 13 -7 13 15 -2 15 -9 47 -17 71 -17z m290 3 c4 -7 23 -13 41 -13
18 0 47 -5 64 -11 25 -8 30 -15 28 -37 -2 -14 -8 -28 -15 -30 -15 -5 -14 21 1
36 8 8 9 12 1 12 -6 0 -16 -12 -21 -27 -9 -25 -10 -26 -11 -5 -1 13 -7 22 -17
22 -13 0 -14 -3 -5 -14 9 -10 9 -16 1 -21 -7 -4 -14 2 -17 14 -6 24 -33 29
-33 6 0 -8 -8 -15 -19 -15 -28 0 -47 26 -31 45 10 12 10 15 -4 15 -10 0 -16
-9 -16 -24 0 -14 -5 -28 -11 -32 -8 -5 -10 3 -7 25 2 17 1 31 -4 31 -4 0 -8
-11 -8 -25 0 -39 -15 -29 -16 10 0 24 4 35 13 35 8 0 21 7 29 15 16 15 44 10
57 -12z m-113 -25 c0 -32 -12 -47 -35 -44 -12 2 -20 11 -21 23 -1 11 -4 25 -8
32 -5 7 4 11 28 11 31 0 36 -3 36 -22z m295 -37 c-4 -23 -10 -41 -15 -41 -8 0
-8 5 5 64 9 43 18 23 10 -23z"/>
<path d="M1445 1960 c3 -5 11 -10 16 -10 6 0 7 5 4 10 -3 6 -11 10 -16 10 -6
0 -7 -4 -4 -10z"/>
<path d="M610 1872 c0 -5 9 -17 19 -26 22 -20 40 -4 21 19 -13 16 -40 20 -40
7z"/>
<path d="M540 1802 c0 -5 8 -17 19 -26 15 -14 19 -14 24 -3 3 8 0 20 -6 26
-13 13 -37 15 -37 3z"/>
<path d="M1271 1684 c0 -11 3 -14 6 -6 3 7 2 16 -1 19 -3 4 -6 -2 -5 -13z"/>
<path d="M1561 994 c0 -11 3 -14 6 -6 3 7 2 16 -1 19 -3 4 -6 -2 -5 -13z"/>
<path d="M660 1350 c0 -5 5 -10 11 -10 5 0 7 5 4 10 -3 6 -8 10 -11 10 -2 0
-4 -4 -4 -10z"/>
<path d="M427 1643 c-4 -3 -7 -11 -7 -17 0 -6 5 -5 12 2 6 6 9 14 7 17 -3 3
-9 2 -12 -2z"/>
<path d="M1775 1602 c-5 -4 -11 -15 -13 -25 -3 -14 2 -18 20 -15 15 2 23 10
23 22 0 21 -14 30 -30 18z m6 -25 c-10 -9 -11 -8 -5 6 3 10 9 15 12 12 3 -3 0
-11 -7 -18z"/>
<path d="M595 980 c3 -5 8 -10 11 -10 2 0 4 5 4 10 0 6 -5 10 -11 10 -5 0 -7
-4 -4 -10z"/>
<path d="M1836 1105 c-3 -8 -1 -15 4 -15 6 0 10 7 10 15 0 8 -2 15 -4 15 -2 0
-6 -7 -10 -15z"/>
<path d="M1264 699 c-3 -6 -1 -16 5 -22 8 -8 11 -5 11 11 0 24 -5 28 -16 11z"/>
<path d="M1037 524 c-4 -4 -7 -16 -7 -26 0 -17 7 -19 48 -16 39 3 47 6 47 23
0 16 -8 21 -40 23 -23 2 -44 0 -48 -4z"/>
<path d="M1045 327 c-4 -10 -5 -21 -1 -24 10 -10 18 4 13 24 -4 17 -4 17 -12
0z"/>
<path d="M870 299 c0 -5 5 -7 10 -4 6 3 10 8 10 11 0 2 -4 4 -10 4 -5 0 -10
-5 -10 -11z"/>
<path d="M1290 356 c0 -2 9 -6 20 -9 11 -3 18 -1 14 4 -5 9 -34 13 -34 5z"/>
<path d="M1325 309 c-10 -15 3 -25 16 -12 7 7 7 13 1 17 -6 3 -14 1 -17 -5z"/>
<path d="M328 1738 c-10 -8 -10 -9 2 -5 8 2 21 -2 28 -10 15 -14 32 -17 32 -5
0 14 -48 30 -62 20z"/>
<path d="M306 1705 c-3 -8 -1 -15 3 -15 5 0 11 7 15 15 3 8 1 15 -3 15 -5 0
-11 -7 -15 -15z"/>
<path d="M345 1700 c3 -5 1 -10 -5 -10 -6 0 -8 -4 -5 -10 3 -5 11 -10 16 -10
6 0 7 5 4 10 -3 6 -1 10 5 10 6 0 8 5 5 10 -3 6 -11 10 -16 10 -6 0 -7 -4 -4
-10z"/>
<path d="M1901 1585 c1 -19 18 -51 18 -35 0 8 -4 22 -9 30 -5 8 -9 11 -9 5z"/>
<path d="M320 810 c0 -5 7 -10 16 -10 8 0 12 5 9 10 -3 6 -10 10 -16 10 -5 0
-9 -4 -9 -10z"/>
</g>
</svg>
