<?xml version="1.0" encoding="UTF-8"?>
<svg version="1.1" xmlns="http://www.w3.org/2000/svg" width="310" height="170">
<path d="M0 0 C1.30646484 -0.00960754 2.61292969 -0.01921509 3.95898438 -0.02911377 C5.40234197 -0.03396837 6.8457016 -0.03824556 8.2890625 -0.04199219 C9.77148438 -0.04774894 11.25390625 -0.0535066 12.73632812 -0.05926514 C15.86035508 -0.06980024 18.9843562 -0.075623 22.10839844 -0.07910156 C26.06286903 -0.08451947 30.01698346 -0.10838908 33.97134399 -0.13707352 C37.04480882 -0.1559643 40.11819352 -0.1609198 43.19171143 -0.16243744 C44.64579159 -0.1654176 46.09987201 -0.17328368 47.55389404 -0.18662262 C67.79360815 -0.35867229 88.8913946 2.86340843 104.9140625 16.16113281 C106.17476562 17.19753906 106.17476562 17.19753906 107.4609375 18.25488281 C122.04739885 30.80807986 129.80492497 45.62582966 133.9140625 64.16113281 C134.0898584 64.93650391 134.2656543 65.711875 134.44677734 66.51074219 C136.82067278 79.97521913 136.09800587 96.13692201 131.9140625 109.16113281 C131.57375 110.23878906 131.2334375 111.31644531 130.8828125 112.42675781 C126.98464742 123.54179608 120.81314743 135.20005954 111.9140625 143.16113281 C111.2540625 143.16113281 110.5940625 143.16113281 109.9140625 143.16113281 C109.9140625 143.82113281 109.9140625 144.48113281 109.9140625 145.16113281 C87.24279766 165.32547894 58.65371345 164.7455995 30.23297119 164.43579102 C26.01542252 164.39429851 21.79777362 164.37648276 17.58007812 164.35644531 C9.35780312 164.31400839 1.13600804 164.24606937 -7.0859375 164.16113281 C-7.1092645 142.9258453 -7.12691569 121.69055989 -7.13774967 100.45526218 C-7.14291305 90.59606562 -7.14995655 80.73687701 -7.16137695 70.87768555 C-7.17132251 62.28765465 -7.17779062 53.6976295 -7.18002599 45.107593 C-7.18133332 40.55632086 -7.18442055 36.00506518 -7.19166756 31.45379829 C-7.19842575 27.17508462 -7.20055487 22.89639428 -7.19904518 18.61767578 C-7.1993216 17.04262605 -7.20132791 15.46757558 -7.20514297 13.89253044 C-7.2100771 11.75149029 -7.20893685 9.61053966 -7.20619202 7.46949768 C-7.20711381 6.26840142 -7.2080356 5.06730516 -7.20898533 3.82981205 C-6.98102782 -1.11416352 -4.36556281 0.02581866 0 0 Z M15.9140625 20.16113281 C15.9140625 61.08113281 15.9140625 102.00113281 15.9140625 144.16113281 C59.72996607 146.97343801 59.72996607 146.97343801 95.6015625 128.91113281 C101.43029098 122.78488223 105.50896049 115.23540384 107.9140625 107.16113281 C108.1925 106.31035156 108.4709375 105.45957031 108.7578125 104.58300781 C114.18635136 85.3820648 112.26500853 62.44731913 102.671875 44.87597656 C94.59397949 32.40011572 83.98777253 25.45857955 69.9140625 21.16113281 C52.09191648 18.61511195 33.91714866 20.16113281 15.9140625 20.16113281 Z " fill="#000000" transform="translate(14.0859375,5.8388671875)"/>
<path d="M0 0 C0.85980469 -0.02900391 1.71960938 -0.05800781 2.60546875 -0.08789062 C6.49295481 -0.12682539 9.10763398 -0.01482585 12.609375 1.76953125 C15.58952334 5.30981697 17.07341903 9.02905958 18.75 13.3125 C19.54071217 15.22305156 20.33243772 17.13318393 21.125 19.04296875 C22.0017946 21.19458206 22.8766891 23.34697035 23.75 25.5 C24.23218994 26.68650146 24.71437988 27.87300293 25.21118164 29.09545898 C29.2998998 39.16591724 33.34561684 49.25351723 37.36990356 59.34988403 C40.05642445 66.08855732 42.75914975 72.82048331 45.47413635 79.54774475 C47.28332957 84.03242226 49.08824696 88.51881548 50.89285278 93.00534058 C51.78884059 95.22998778 52.68665194 97.45390151 53.58639526 99.67703247 C62.84335639 122.55555766 62.84335639 122.55555766 65.75 133.3125 C66.40742188 131.45238281 66.40742188 131.45238281 67.078125 129.5546875 C70.93010441 118.75853478 74.99427802 108.06615911 79.27734375 97.43359375 C79.8017263 96.12787161 80.32590658 94.82206821 80.84989929 93.51618958 C81.93828146 90.804028 83.02741294 88.09216912 84.11700439 85.38049316 C86.47305685 79.51431762 88.81646155 73.6430938 91.16044235 67.7720871 C92.43762109 64.57368151 93.71591525 61.3757218 94.99414062 58.17773438 C96.53899376 54.31261851 98.08361587 50.44741106 99.62719727 46.58178711 C100.14794086 45.27782869 100.66869278 43.9738736 101.18945312 42.66992188 C101.57191854 41.71210658 101.57191854 41.71210658 101.96211052 40.73494148 C103.68010065 36.4344808 105.40648564 32.13745085 107.13525391 27.84130859 C108.73856561 23.85449099 110.317515 19.86049265 111.86083984 15.85009766 C112.32782539 14.65855827 112.32782539 14.65855827 112.804245 13.44294739 C113.35372741 12.04038636 113.89257401 10.6335769 114.41706848 9.22148132 C116.07712944 5.03693304 117.90599392 2.67492437 121.75 0.3125 C124.0300293 -0.1574707 124.0300293 -0.1574707 126.32421875 -0.11328125 C127.15630859 -0.10490234 127.98839844 -0.09652344 128.84570312 -0.08789062 C129.70099609 -0.05888672 130.55628906 -0.02988281 131.4375 0 C132.30439453 0.00966797 133.17128906 0.01933594 134.06445312 0.02929688 C140.41077734 0.14288867 140.41077734 0.14288867 142.75 1.3125 C141.193226 6.2039793 139.33082847 10.91723724 137.37109375 15.65625 C136.87934158 16.85223061 136.87934158 16.85223061 136.37765503 18.07237244 C135.31606925 20.65315969 134.25176769 23.23281772 133.1875 25.8125 C132.45119772 27.60155406 131.71511471 29.39069837 130.97924805 31.17993164 C129.53941762 34.68036095 128.09874752 38.18044232 126.65722656 41.68017578 C123.00415961 50.55053732 119.37300579 59.42982422 115.75 68.3125 C115.50401062 68.91533813 115.25802124 69.51817627 115.00457764 70.13928223 C113.29028673 74.34067776 111.57778208 78.54279621 109.86703491 82.74563599 C109.30057397 84.13681588 108.73371696 85.52783458 108.16641235 86.91867065 C105.44202279 93.59930592 102.74365302 100.28595526 100.171875 107.02734375 C98.24930467 112.06038286 96.22275351 117.0384083 94.13378906 122.00439453 C92.50054256 125.90885645 90.90178522 129.82674331 89.3046875 133.74609375 C88.38884759 135.98736182 87.47251778 138.22842918 86.55615234 140.46948242 C85.93048629 142.00182291 85.30615734 143.53470996 84.68310547 145.06811523 C83.76907918 147.3165056 82.84986618 149.56271554 81.9296875 151.80859375 C81.51709183 152.82897987 81.51709183 152.82897987 81.09616089 153.86997986 C77.99638166 161.40545835 77.99638166 161.40545835 75.75 164.3125 C73.57348633 164.88012695 73.57348633 164.88012695 71.08203125 164.80078125 C69.74301758 164.77661133 69.74301758 164.77661133 68.37695312 164.75195312 C67.44818359 164.71005859 66.51941406 164.66816406 65.5625 164.625 C64.15194336 164.59116211 64.15194336 164.59116211 62.71289062 164.55664062 C60.39032527 164.49769227 58.07096224 164.41547785 55.75 164.3125 C51.987646 157.23260233 49.04662173 149.8462866 46.06787109 142.41455078 C44.41413718 138.28920833 42.74912218 134.1684141 41.0859375 130.046875 C40.73521179 129.17687866 40.38448608 128.30688232 40.02313232 127.41052246 C36.34461699 118.29196683 32.61921269 109.19275882 28.89028931 100.09472656 C22.26400424 83.92705208 15.66299564 67.74943994 9.11279297 51.55078125 C8.51403914 50.07029562 7.91524387 48.58982674 7.31640625 47.109375 C7.0238092 46.38600952 6.73121216 45.66264404 6.42974854 44.9173584 C4.2894565 39.63155488 2.12995626 34.35380267 -0.03515625 29.078125 C-0.94204695 26.86360111 -1.84857923 24.64893087 -2.75497437 22.4342041 C-3.3279222 21.03697428 -3.90244722 19.64038999 -4.47866821 18.24450684 C-5.26839298 16.33127206 -6.0527018 14.41589848 -6.8359375 12.5 C-7.50181885 10.88158203 -7.50181885 10.88158203 -8.18115234 9.23046875 C-9.15609359 6.56886578 -9.88003565 4.12095171 -10.25 1.3125 C-8.01484509 -0.92265491 -2.99909808 0.033127 0 0 Z " fill="#000000" transform="translate(165.25,5.6875)"/>
</svg>
